<svg xmlns="http://www.w3.org/2000/svg" version="1.1" xmlns:xlink="http://www.w3.org/1999/xlink" xmlns:svgjs="http://svgjs.com/svgjs" width="512" height="512" x="0" y="0" viewBox="0 0 64 64" style="enable-background:new 0 0 512 512" xml:space="preserve" class=""><g><g xmlns="http://www.w3.org/2000/svg" id="add-arrow-direction-button-pointer"><circle cx="32" cy="32" fill="#ffc369" r="29" data-original="#006df0" class=""></circle><path d="m32 3a29 29 0 0 0 -20.506 49.506l41.012-41.012a28.909 28.909 0 0 0 -20.506-8.494z" fill="#f1950a" data-original="#2488ff" class=""></path><path d="m45 28h-9v-9a4 4 0 0 0 -8 0v9h-9a4 4 0 0 0 0 8h9v9a4 4 0 0 0 8 0v-9h9a4 4 0 0 0 0-8z" fill="#ffcd00" data-original="#ffcd00" class=""></path><g fill="#231f20"><path d="m32 62a30 30 0 1 1 30-30 30.034 30.034 0 0 1 -30 30zm0-58a28 28 0 1 0 28 28 28.032 28.032 0 0 0 -28-28z" fill="#231f20" data-original="#231f20" class=""></path><path d="m30 8.079a1 1 0 0 1 -.078-2c.688-.051 1.388-.079 2.078-.079a1 1 0 0 1 0 2c-.638 0-1.284.025-1.921.076z" fill="#231f20" data-original="#231f20" class=""></path><path d="m7 33a1 1 0 0 1 -1-1 25.953 25.953 0 0 1 19.76-25.243 1 1 0 1 1 .48 1.943 23.959 23.959 0 0 0 -18.24 23.3 1 1 0 0 1 -1 1z" fill="#231f20" data-original="#231f20" class=""></path><path d="m32 50a5.006 5.006 0 0 1 -5-5v-8h-8a5 5 0 0 1 0-10h8v-8a5 5 0 0 1 10 0v8h8a5 5 0 0 1 0 10h-8v8a5.006 5.006 0 0 1 -5 5zm-13-21a3 3 0 0 0 0 6h9a1 1 0 0 1 1 1v9a3 3 0 0 0 6 0v-9a1 1 0 0 1 1-1h9a3 3 0 0 0 0-6h-9a1 1 0 0 1 -1-1v-9a3 3 0 0 0 -6 0v9a1 1 0 0 1 -1 1z" fill="#231f20" data-original="#231f20" class=""></path></g></g></g></svg>