<svg xmlns="http://www.w3.org/2000/svg" version="1.1" xmlns:xlink="http://www.w3.org/1999/xlink" xmlns:svgjs="http://svgjs.com/svgjs" width="512" height="512" x="0" y="0" viewBox="0 0 512 512" style="enable-background:new 0 0 512 512" xml:space="preserve" class=""><g><g xmlns="http://www.w3.org/2000/svg" id="Layer_x0020_1"><path d="m255 472c-119 0-215-97-215-216s97-216 216-216 216 97 216 216c-1 119-98 216-217 216z" fill="#df5a49" data-original="#df5a49" class=""></path><path d="m236 16c-4 0-7-3-7-7s3-8 7-8c11-1 24-1 35 0 4 0 7 3 7 7-1 5-4 8-8 7-11-1-23-1-33 1 0 0 0 0-1 0z" fill="#df5a49" data-original="#df5a49" class=""></path><path d="m220 367c-2 0-4-1-5-2l-90-90c-7-6-10-14-10-23s3-18 10-23c12-13 34-13 47-1l47 47 120-120c13-13 35-13 47 0 7 6 10 14 10 24 0 9-3 17-10 24l-160 160c-1 0-1 1-1 2-2 1-4 2-5 2z" fill="#ffffff" data-original="#ffffff"></path><g fill="#df5a49"><path d="m393 56c-2 0-3-1-4-1-4-3-8-6-13-8-6-4-12-7-17-9-3-2-5-7-3-10s6-5 10-3c5 3 11 6 18 10 4 2 9 5 13 8 3 2 4 6 2 10-2 2-4 3-6 3z" fill="#df5a49" data-original="#df5a49" class=""></path><path d="m478 152c-3 0-5-1-7-4-2-4-4-8-6-13l-2-3c-3-4-5-8-8-12-3-3-2-8 1-10 4-3 8-2 10 2 3 4 6 8 9 13l2 3c3 4 5 9 7 14 2 4 0 8-3 10-1 0-2 0-3 0z" fill="#df5a49" data-original="#df5a49" class=""></path><path d="m504 278h-1c-4 0-7-3-6-7 0-5 0-10 0-15 0-7 0-13 0-19-1-4 2-7 6-8 5 0 8 3 8 7 1 7 1 13 1 20v16c-1 4-4 6-8 6z" fill="#df5a49" data-original="#df5a49" class=""></path><path d="m463 400c-1 0-3 0-4-1-3-2-4-7-2-10 3-4 6-8 8-12v-1c3-5 6-11 9-16 1-4 6-5 9-3 4 1 5 6 4 9-3 5-6 12-9 18-3 4-6 8-8 13-2 2-5 3-7 3z" fill="#df5a49" data-original="#df5a49" class=""></path><path d="m366 486c-2 0-5-2-6-4-2-4 0-8 3-10 5-2 9-5 13-7 5-3 11-6 16-10 3-2 8-1 10 2s1 8-2 10c-5 4-11 7-17 10-4 3-9 5-14 8 0 1-1 1-3 1z" fill="#df5a49" data-original="#df5a49" class=""></path><path d="m255 512c-5 0-10 0-15-1-4 0-7-3-7-7 1-5 4-8 8-7h15 19c4-1 7 2 7 7 1 4-2 7-6 7-7 1-14 1-21 1z" fill="#df5a49" data-original="#df5a49" class=""></path><path d="m148 488s-2 0-2-1c-6-3-12-6-18-9-5-3-9-6-13-8s-4-7-2-10 6-4 10-2 8 5 12 7c6 4 11 7 16 9 4 2 6 6 4 10-1 2-4 4-7 4z" fill="#df5a49" data-original="#df5a49" class=""></path><path d="m51 404c-3 0-5-1-7-3-3-5-6-11-10-17-2-4-5-9-7-14-2-4 0-8 3-10 4-1 8 0 9 4 3 4 5 8 7 12 4 6 7 12 10 16 2 4 1 8-2 10-1 2-2 2-3 2z" fill="#df5a49" data-original="#df5a49" class=""></path><path d="m8 283c-4 0-7-3-7-7-1-7-1-13-1-20 0-5 0-10 0-15 1-5 4-7 8-7s7 4 7 8v1c-1 4-1 9-1 13 0 7 1 13 1 19 1 4-2 8-6 8-1 0-1 0-1 0z" fill="#df5a49" data-original="#df5a49" class=""></path><path d="m32 157c-1 0-3 0-3-1-4-2-6-6-4-10 2-6 6-11 9-18 3-5 6-9 8-13 2-3 7-4 10-1 3 2 4 6 2 10-2 3-5 7-8 12-3 6-6 11-9 16 0 3-3 5-5 5z" fill="#df5a49" data-original="#df5a49" class=""></path><path d="m115 58c-2 0-5-1-6-3-3-3-2-7 2-10 5-3 11-7 16-10 5-2 9-5 14-7 4-2 8 0 10 3 1 4 0 8-4 9-4 3-9 5-13 7-5 3-11 6-16 10 0 1-2 1-3 1z" fill="#df5a49" data-original="#df5a49" class=""></path></g></g></g></svg>