<svg xmlns="http://www.w3.org/2000/svg" version="1.1" xmlns:xlink="http://www.w3.org/1999/xlink" xmlns:svgjs="http://svgjs.com/svgjs" width="512" height="512" x="0" y="0" viewBox="0 0 512 512" style="enable-background:new 0 0 512 512" xml:space="preserve" class=""><g><g xmlns="http://www.w3.org/2000/svg" clip-rule="evenodd" fill-rule="evenodd"><g><path d="m288.358 120.43c14.348 3.415 28.051 9.103 40.609 16.836l26.388-11.72 31.101 31.1-11.716 26.38c7.735 12.561 13.423 26.269 16.839 40.62l26.922 10.363v43.983l-26.929 10.365c-3.415 14.348-9.103 28.051-16.836 40.609l11.72 26.388-31.1 31.102-26.38-11.716c-12.561 7.735-26.269 13.424-40.62 16.838l-10.362 26.922h-43.984l-10.366-26.929c-14.348-3.415-28.051-9.103-40.609-16.836l-26.388 11.72-31.102-31.1 11.716-26.38c-7.735-12.561-13.423-26.27-16.838-40.62l-26.923-10.363v-43.982l26.926-10.364c3.414-14.349 9.103-28.054 16.836-40.613l-11.718-26.385 31.1-31.102 26.389 11.72c12.559-7.732 26.262-13.421 40.61-16.836l10.365-26.929h43.983zm-32.357 52.16c-46.071 0-83.411 37.34-83.411 83.411s37.34 83.411 83.411 83.411 83.411-37.34 83.411-83.411-37.339-83.411-83.411-83.411z" fill="#ffe177" data-original="#ffe177"></path><path d="m288.358 120.43c14.348 3.415 28.051 9.103 40.609 16.836l26.388-11.72 31.101 31.1-11.716 26.38c7.735 12.561 13.423 26.269 16.839 40.62l26.922 10.363v43.983l-26.929 10.365c-3.415 14.348-9.103 28.051-16.836 40.609l11.72 26.388-31.1 31.102-26.38-11.716c-12.561 7.735-26.269 13.424-40.62 16.838l-10.362 26.922h-21.993v-79.089c46.071 0 83.411-37.34 83.411-83.411s-37.34-83.411-83.411-83.411v-79.088h21.992z" fill="#ffd064" data-original="#ffd064" class=""></path></g><path d="m332.23 367.431 21.368 9.481 23.303-23.331-9.481-21.368c-1.085-2.411-.896-5.194.519-7.444 7.312-11.868 12.642-24.75 15.85-38.27.613-2.561 2.453-4.656 4.906-5.609l21.793-8.392v-32.996l-21.793-8.392c-2.453-.948-4.292-3.052-4.906-5.609-3.208-13.533-8.538-26.411-15.85-38.279-1.415-2.25-1.556-5.033-.519-7.444l9.481-21.359-23.303-23.331-21.368 9.491c-2.453 1.071-5.189.882-7.453-.5-11.887-7.307-24.765-12.651-38.256-15.868-2.594-.609-4.67-2.453-5.613-4.91l-8.396-21.802h-33.02l-8.396 21.802c-.943 2.458-3.019 4.302-5.613 4.91-13.491 3.217-26.369 8.562-38.256 15.868-2.264 1.382-5.047 1.571-7.453.5l-21.368-9.5-23.302 23.34 9.481 21.359c1.038 2.424.896 5.203-.519 7.453-7.311 11.868-12.642 24.736-15.849 38.27-.613 2.557-2.453 4.66-4.906 5.609l-21.793 8.392v32.996l21.793 8.392c2.453.953 4.293 3.047 4.906 5.609 3.208 13.533 8.538 26.411 15.849 38.284 1.415 2.25 1.557 5.029.519 7.439l-9.481 21.359 23.302 23.331 21.368-9.491c2.406-1.071 5.189-.882 7.453.5 11.887 7.311 24.765 12.651 38.256 15.868 2.594.613 4.67 2.453 5.613 4.91l8.396 21.802h33.02l8.396-21.802c.944-2.458 3.019-4.288 5.613-4.901 13.491-3.217 26.369-8.557 38.256-15.868 2.264-1.39 5.047-1.569 7.453-.499zm-2.736 16.303c-11.038 6.377-22.831 11.269-35.143 14.59l-8.915 23.048c-1.18 3.09-4.151 5.132-7.453 5.132h-43.963c-3.302 0-6.274-2.042-7.5-5.132l-8.868-23.057c-12.312-3.311-24.104-8.203-35.143-14.581l-22.595 10.038c-3.066 1.34-6.604.679-8.915-1.661l-31.086-31.1c-2.359-2.34-3.019-5.878-1.698-8.901l10.047-22.6c-6.368-11.057-11.274-22.859-14.576-35.18l-23.067-8.868c-3.066-1.189-5.142-4.161-5.142-7.472v-43.977c0-3.312 2.076-6.283 5.142-7.472l23.067-8.868c3.302-12.312 8.208-24.109 14.576-35.18l-10.047-22.6c-1.321-3.019-.66-6.562 1.698-8.901l31.086-31.1c2.311-2.34 5.849-3 8.915-1.66l22.595 10.043c11.038-6.382 22.831-11.274 35.143-14.581l8.868-23.062c1.226-3.09 4.198-5.128 7.5-5.128h43.963c3.302 0 6.274 2.038 7.453 5.128l8.915 23.062c12.312 3.307 24.104 8.198 35.143 14.581l22.595-10.043c3.019-1.34 6.604-.679 8.915 1.66l31.086 31.1c2.358 2.34 3.019 5.882 1.698 8.901l-10.048 22.6c6.368 11.057 11.274 22.859 14.576 35.18l23.067 8.868c3.066 1.189 5.094 4.16 5.094 7.472v43.977c0 3.311-2.029 6.283-5.094 7.472l-23.067 8.868c-3.302 12.312-8.208 24.114-14.576 35.171l10.048 22.609c1.321 3.024.66 6.562-1.698 8.901l-31.086 31.1c-2.311 2.34-5.896 3-8.915 1.661zm1.934-127.735c0 41.581-33.869 75.412-75.427 75.412s-75.426-33.831-75.426-75.412c0-41.577 33.869-75.408 75.426-75.408 41.558 0 75.427 33.831 75.427 75.408zm15.991 0c0 50.402-41.039 91.413-91.418 91.413s-91.418-41.01-91.418-91.413c0-50.398 41.039-91.408 91.418-91.408s91.418 41.011 91.418 91.408zm156.561-7.995c4.434 0 8.019 3.581 8.019 7.996 0 53.195-16.18 104.191-46.747 147.504-26.793 37.968-62.832 67.568-104.861 86.318l17.501 3.029c4.387.75 7.311 4.891 6.556 9.25-.707 3.892-4.057 6.642-7.878 6.642-.472 0-.943-.038-1.368-.118l-46.416-8.024c-2.595-.458-4.859-2.189-5.896-4.618-1.132-2.429-.896-5.241.472-7.5l22.548-36.133c2.359-3.745 7.312-4.887 11.038-2.547 3.774 2.339 4.906 7.269 2.547 11.019l-10.189 16.363c88.115-37.241 146.702-124.895 146.702-221.185 0-4.416 3.585-7.996 7.972-7.996zm-247.979-232.002c-4.434 0-8.019-3.58-8.019-8s3.585-8 8.019-8c53.681 0 105.097 16.449 148.636 47.563 37.501 26.77 66.653 62.488 85.191 104.06l3.019-17.533c.755-4.359 4.906-7.278 9.245-6.519 4.34.75 7.264 4.892 6.51 9.25l-8.019 46.378c-.425 2.623-2.17 4.849-4.623 5.934-1.038.467-2.123.698-3.255.698-1.462 0-2.925-.41-4.245-1.212l-36.086-22.548c-3.774-2.34-4.906-7.269-2.595-11.019 2.359-3.75 7.312-4.892 11.038-2.552l16.368 10.208c-37.263-88.258-124.577-146.708-221.184-146.708zm0 479.999c4.434 0 8.019 3.58 8.019 8s-3.585 8-8.019 8c-101.512 0-192.977-60.138-233.827-151.632l-3.019 17.543c-.66 3.892-4.057 6.637-7.877 6.637-.472 0-.896-.038-1.368-.118-4.34-.75-7.264-4.892-6.51-9.25l8.019-46.379c.425-2.623 2.17-4.849 4.623-5.929 2.406-1.095 5.236-.901 7.5.509l36.086 22.548c3.774 2.339 4.906 7.269 2.595 11.019-2.359 3.75-7.312 4.892-11.038 2.552l-16.368-10.212c37.264 88.333 124.342 146.712 221.184 146.712zm-247.978-231.997c-4.434 0-8.019-3.58-8.019-8.005 0-53.737 16.463-105.168 47.596-148.74 26.793-37.425 62.502-66.558 104.012-85.078l-17.501-3.029c-4.387-.75-7.311-4.891-6.557-9.25.755-4.349 4.906-7.269 9.245-6.519l46.417 8.019c2.595.458 4.812 2.189 5.896 4.618 1.085 2.429.896 5.241-.472 7.5l-22.548 36.128c-1.557 2.434-4.151 3.774-6.792 3.774-1.462 0-2.925-.401-4.245-1.222-3.774-2.34-4.906-7.269-2.547-11.019l10.189-16.359c-88.257 37.262-146.702 124.561-146.702 221.177 0 4.425-3.585 8.005-7.972 8.005z" fill="#000000" data-original="#000000" class=""></path></g></g></svg>