<svg xmlns="http://www.w3.org/2000/svg" version="1.1" xmlns:xlink="http://www.w3.org/1999/xlink" xmlns:svgjs="http://svgjs.com/svgjs" width="512" height="512" x="0" y="0" viewBox="0 0 495.2 495.2" style="enable-background:new 0 0 512 512" xml:space="preserve" class=""><g><g xmlns="http://www.w3.org/2000/svg"><path d="m263.568 192.55h-33.12v-61.494c0-5.293 2.078-10.375 5.788-14.151l10.772-10.967 10.772 10.967c3.709 3.776 5.788 8.858 5.788 14.151z" fill="#d8ab8c" data-original="#d8ab8c"></path><g><path d="m263.567 200.049h-33.12c-4.142 0-7.5-3.357-7.5-7.5v-61.493c0-7.305 2.819-14.196 7.937-19.407l10.772-10.968c1.41-1.436 3.338-2.244 5.351-2.244s3.94.809 5.351 2.244l10.772 10.968c5.118 5.211 7.937 12.104 7.937 19.407v61.493c0 4.143-3.357 7.5-7.5 7.5zm-25.619-15h18.12v-53.993c0-3.348-1.292-6.508-3.638-8.896l-5.422-5.52-5.422 5.521c-2.346 2.389-3.638 5.548-3.638 8.896z" fill="#c38778" data-original="#c38778"></path></g><g><path d="m167.982 147.639c-8.32 0-15.065-6.745-15.065-15.065v-11.03c0-2.228 1.807-4.035 4.035-4.035h22.06c2.228 0 4.035 1.807 4.035 4.035v11.03c0 8.32-6.744 15.065-15.065 15.065z" fill="#fb5858" data-original="#fb5858"></path></g><g><path d="m326.01 147.639c-8.32 0-15.065-6.745-15.065-15.065v-11.03c0-2.228 1.807-4.035 4.035-4.035h22.06c2.228 0 4.035 1.807 4.035 4.035v11.03c0 8.32-6.744 15.065-15.065 15.065z" fill="#fb5858" data-original="#fb5858"></path></g><g><g><path d="m167.982 155.139c-12.442 0-22.565-10.122-22.565-22.564v-11.03c0-6.36 5.175-11.535 11.535-11.535h22.06c6.36 0 11.535 5.175 11.535 11.535v11.03c0 12.442-10.122 22.564-22.565 22.564zm-7.565-30.13v7.565c0 4.171 3.394 7.564 7.565 7.564s7.565-3.394 7.565-7.564v-7.565z" fill="#ddeafb" data-original="#ddeafb"></path></g><g><path d="m167.982 192.207c-4.142 0-7.5-3.357-7.5-7.5v-37.068c0-4.143 3.358-7.5 7.5-7.5s7.5 3.357 7.5 7.5v37.068c0 4.143-3.357 7.5-7.5 7.5z" fill="#ddeafb" data-original="#ddeafb"></path></g></g><g><g><path d="m326.01 155.139c-12.442 0-22.564-10.122-22.564-22.564v-11.03c0-6.36 5.174-11.535 11.534-11.535h22.061c6.36 0 11.535 5.175 11.535 11.535v11.03c0 12.442-10.123 22.564-22.566 22.564zm-7.564-30.13v7.565c0 4.171 3.394 7.564 7.564 7.564 4.172 0 7.565-3.394 7.565-7.564v-7.565z" fill="#ddeafb" data-original="#ddeafb"></path></g><g><path d="m326.01 192.207c-4.143 0-7.5-3.357-7.5-7.5v-37.068c0-4.143 3.357-7.5 7.5-7.5s7.5 3.357 7.5 7.5v37.068c0 4.143-3.357 7.5-7.5 7.5z" fill="#ddeafb" data-original="#ddeafb"></path></g></g><g><path d="m247.2 395.87c-4.142 0-7.5-3.357-7.5-7.5v-127.793c0-4.143 3.358-7.5 7.5-7.5s7.5 3.357 7.5 7.5v127.793c0 4.143-3.358 7.5-7.5 7.5z" fill="#bed8fb" data-original="#bed8fb"></path></g><path d="m359.599 184.708h-224.797c-15.517 0-29.437 9.544-35.029 24.019-2.937 7.602 2.673 15.784 10.823 15.784h273.208c8.15 0 13.76-8.182 10.823-15.784-5.592-14.475-19.511-24.019-35.028-24.019z" fill="#685e68" data-original="#685e68"></path><path d="m394.627 208.727c-5.592-14.475-19.511-24.019-35.029-24.019h-24.225c15.517 0 29.437 9.544 35.029 24.019 2.937 7.602-2.673 15.784-10.823 15.784h24.225c8.15 0 13.76-8.182 10.823-15.784z" fill="#554e56" data-original="#554e56"></path><g><g><path d="m118.447 314.403h-28.922l-15.384 1.803-16.21-1.802h-20.333c-20.732-.001-37.598-16.867-37.598-37.599v-131.164c0-8.592 6.965-15.558 15.558-15.558s15.558 6.966 15.558 15.558v131.165c0 3.574 2.907 6.481 6.481 6.481h80.85c8.593 0 15.558 6.966 15.558 15.558s-6.965 15.558-15.558 15.558z" fill="#fb5858" data-original="#fb5858"></path></g></g><g fill="#f44545"><path d="m15.953 145.641v131.165c0 3.574 2.907 6.481 6.481 6.481h15.164c-3.573 0-6.481-2.907-6.481-6.481v-131.165c0-8.592-6.965-15.558-15.558-15.558-2.755 0-5.337.723-7.582 1.979 4.756 2.661 7.976 7.741 7.976 13.579z" fill="#f44545" data-original="#f44545"></path><path d="m118.447 283.286h-15.164c8.593 0 15.558 6.966 15.558 15.558s-6.965 15.558-15.558 15.558h15.164c8.593 0 15.558-6.966 15.558-15.558s-6.965-15.558-15.558-15.558z" fill="#f44545" data-original="#f44545"></path></g><g><g><path d="m376.753 314.403 30.257.001 16.43 2.064 14.097-2.064 20.066-.001c20.731 0 37.597-16.866 37.597-37.597v-131.165c0-8.592-6.965-15.558-15.558-15.558s-15.558 6.966-15.558 15.558v131.165c0 3.574-2.907 6.481-6.481 6.481h-80.85c-8.593 0-15.558 6.966-15.558 15.558s6.965 15.558 15.558 15.558z" fill="#fb5858" data-original="#fb5858"></path></g></g><path d="m479.642 130.082c-2.755 0-5.338.723-7.582 1.979 4.757 2.662 7.976 7.742 7.976 13.58v131.165c0 20.731-16.866 37.597-37.597 37.597h15.164c20.731 0 37.597-16.866 37.597-37.597v-131.165c0-8.593-6.965-15.559-15.558-15.559z" fill="#f44545" data-original="#f44545"></path><path d="m265.669 263.749h-36.937c-8.037 0-14.553-6.515-14.553-14.553v-24.686h66.042v24.686c0 8.038-6.515 14.553-14.552 14.553z" fill="#cbe2ff" data-original="#cbe2ff"></path><path d="m255.996 224.511v24.686c0 8.037-6.516 14.553-14.553 14.553h24.225c8.037 0 14.553-6.516 14.553-14.553v-24.686z" fill="#bed8fb" data-original="#bed8fb"></path><path d="m247.133 375.37 38.22 30.613c3.037 2.033 1.599 6.77-2.056 6.772l-72.19.039c-3.654.002-5.098-4.733-2.063-6.77z" fill="#cbe2ff" data-original="#cbe2ff"></path><path d="m285.353 405.984-38.22-30.613-12.084 9.725 26.079 20.888c3.037 2.033 1.599 6.77-2.056 6.772h24.225c3.655-.003 5.093-4.739 2.056-6.772z" fill="#bed8fb" data-original="#bed8fb"></path><g><g><path d="m138.5 427.797c-3.047 0-5.912-1.871-7.033-4.896l-31.754-85.667c-1.736-4.684-6.26-7.831-11.255-7.831h-30.528c-5.187 0-9.767 3.309-11.396 8.232l-28.132 85.016c-1.301 3.931-5.543 6.065-9.476 4.764s-6.065-5.544-4.764-9.477l28.131-85.015c3.665-11.077 13.968-18.521 25.636-18.521h30.527c11.239 0 21.414 7.08 25.32 17.618l31.754 85.667c1.44 3.884-.542 8.199-4.425 9.639-.858.319-1.739.471-2.605.471z" fill="#685e68" data-original="#685e68"></path></g></g><g><g><path d="m356.967 427.797c-.866 0-1.746-.151-2.605-.47-3.884-1.439-5.865-5.755-4.426-9.639l31.754-85.667c3.907-10.538 14.083-17.618 25.32-17.618h30.527c11.669 0 21.972 7.443 25.636 18.521l28.132 85.014c1.302 3.933-.832 8.176-4.764 9.477-3.937 1.303-8.176-.832-9.477-4.764l-28.132-85.015c-1.629-4.925-6.209-8.233-11.396-8.233h-30.526c-4.995 0-9.519 3.147-11.256 7.832l-31.754 85.666c-1.121 3.025-3.986 4.896-7.033 4.896z" fill="#685e68" data-original="#685e68"></path></g></g><g><path d="m247.008 113.437c-4.142 0-7.5-3.357-7.5-7.5v-31.034c0-4.143 3.358-7.5 7.5-7.5 4.143 0 7.5 3.357 7.5 7.5v31.034c0 4.143-3.358 7.5-7.5 7.5z" fill="#c38778" data-original="#c38778"></path></g></g></g></svg>