<svg xmlns="http://www.w3.org/2000/svg" version="1.1" xmlns:xlink="http://www.w3.org/1999/xlink" xmlns:svgjs="http://svgjs.com/svgjs" width="512" height="512" x="0" y="0" viewBox="0 0 511.959 511.959" style="enable-background:new 0 0 512 512" xml:space="preserve" class=""><g><g xmlns="http://www.w3.org/2000/svg"><g><path d="m449.743 283.259c-59.32-64.46-135.067-103.445-217.875-103.445s-158.555 38.986-217.875 103.445c-4.356 4.733-6.534 10.774-6.534 16.816s2.178 12.083 6.534 16.816c59.32 64.46 135.067 103.445 217.875 103.445s158.555-38.985 217.875-103.445c4.356-4.733 6.534-10.774 6.534-16.816-.001-6.042-2.179-12.083-6.534-16.816z" fill="#edf4ff" data-original="#edf4ff"></path><circle cx="231.868" cy="300.075" fill="#8bb3ea" r="88.191" data-original="#8bb3ea"></circle><circle cx="231.868" cy="300.075" fill="#5d5360" r="40.087" data-original="#5d5360"></circle><path d="m246.566 373.568c-48.707 0-88.191-39.485-88.191-88.191 0-20.605 7.122-39.514 18.964-54.527-20.474 16.15-33.662 41.125-33.662 69.226 0 48.707 39.485 88.191 88.191 88.191 28.102 0 53.078-13.189 69.227-33.664-15.014 11.841-33.923 18.965-54.529 18.965z" fill="#739ad6" data-original="#739ad6"></path><path d="m245.648 326.382c-22.139 0-40.087-17.948-40.087-40.087 0-7.525 2.202-14.484 5.808-20.5-11.685 7.004-19.587 19.665-19.587 34.279 0 22.139 17.948 40.087 40.087 40.087 14.615 0 27.275-7.902 34.279-19.587-6.017 3.607-12.976 5.808-20.5 5.808z" fill="#4b3f4e" data-original="#4b3f4e"></path><path d="m450.621 284.42c-.783 4.513-2.773 8.845-5.991 12.427-57.928 64.46-131.898 103.445-212.762 103.445s-154.834-38.985-212.762-103.445c-3.219-3.582-5.209-7.915-5.992-12.428-3.712 4.548-5.655 10.078-5.655 15.656 0 6.042 2.178 12.083 6.534 16.816 59.32 64.46 135.067 103.445 217.875 103.445s158.555-38.985 217.875-103.445c4.356-4.733 6.534-10.774 6.534-16.816-.001-5.577-1.944-11.107-5.656-15.655z" fill="#dbeaff" data-original="#dbeaff"></path><path d="m480.056 243.953h-191.715c-13.478 0-24.403-10.926-24.403-24.403v-103.524c0-13.478 10.926-24.403 24.403-24.403h191.715c13.478 0 24.403 10.926 24.403 24.403v103.524c0 13.478-10.926 24.403-24.403 24.403z" fill="#e5646e" data-original="#e5646e"></path><path d="m502.892 219.901h-198.516c-9.035 0-16.386-7.351-16.386-16.386v-110.325-1.532c-13.312.192-24.052 11.011-24.052 24.368v103.524c0 13.477 10.926 24.404 24.404 24.404h191.715c13.358 0 24.176-10.741 24.368-24.052h-1.533z" fill="#db4655" data-original="#db4655"></path></g><g><path d="m480.056 84.123h-191.715c-17.591 0-31.903 14.312-31.903 31.903v103.524c0 17.591 14.312 31.903 31.903 31.903h191.715c17.591 0 31.903-14.312 31.903-31.903v-103.524c0-17.591-14.312-31.903-31.903-31.903zm16.903 135.427c0 9.32-7.583 16.903-16.903 16.903h-191.715c-9.32 0-16.903-7.583-16.903-16.903v-103.524c0-9.32 7.583-16.903 16.903-16.903h191.715c9.32 0 16.903 7.583 16.903 16.903z" fill="#000000" data-original="#000000"></path><path d="m448.312 270.819c-2.88-2.975-7.629-3.051-10.605-.168-2.975 2.882-3.051 7.63-.169 10.605 2.248 2.32 4.497 4.703 6.687 7.082 6.057 6.582 6.057 16.893 0 23.475-29.5 32.056-62.433 57.029-97.885 74.225-36.657 17.782-75.171 26.798-114.472 26.798s-77.814-9.016-114.472-26.798c-35.452-17.196-68.385-42.169-97.885-74.225-6.057-6.582-6.057-16.893 0-23.475 29.5-32.056 62.433-57.029 97.885-74.225 36.657-17.782 75.171-26.798 114.472-26.798 4.142 0 7.5-3.358 7.5-7.5s-3.358-7.5-7.5-7.5c-41.587 0-82.303 9.522-121.019 28.302-37.151 18.021-71.596 44.118-102.375 77.564-11.299 12.277-11.299 31.511 0 43.789 30.779 33.446 65.224 59.542 102.375 77.564 38.715 18.78 79.432 28.302 121.019 28.302s82.303-9.522 121.019-28.302c37.151-18.021 71.596-44.118 102.375-77.564 11.299-12.278 11.299-31.512 0-43.789-2.276-2.473-4.614-4.95-6.95-7.362z" fill="#000000" data-original="#000000"></path><path d="m231.868 380.767c-44.493 0-80.691-36.198-80.691-80.691s36.198-80.691 80.691-80.691c4.142 0 7.5-3.358 7.5-7.5s-3.358-7.5-7.5-7.5c-52.765 0-95.691 42.927-95.691 95.691s42.927 95.691 95.691 95.691 95.691-42.927 95.691-95.691c0-8.872-1.215-17.661-3.611-26.122-1.128-3.985-5.275-6.301-9.26-5.173-3.985 1.129-6.301 5.274-5.173 9.26 2.02 7.131 3.043 14.544 3.043 22.035.001 44.492-36.197 80.691-80.69 80.691z" fill="#000000" data-original="#000000"></path><path d="m184.281 300.075c0 26.239 21.348 47.587 47.587 47.587s47.587-21.348 47.587-47.587c0-5.966-1.092-11.787-3.246-17.303-1.506-3.858-5.854-5.765-9.714-4.259-3.858 1.506-5.765 5.855-4.258 9.714 1.472 3.77 2.218 7.756 2.218 11.848 0 17.968-14.619 32.587-32.587 32.587s-32.587-14.619-32.587-32.587 14.619-32.587 32.587-32.587c3.258 0 6.471.478 9.55 1.419 3.962 1.212 8.154-1.017 9.366-4.978s-1.017-8.154-4.978-9.366c-4.502-1.377-9.192-2.076-13.938-2.076-26.24.001-47.587 21.349-47.587 47.588z" fill="#000000" data-original="#000000"></path><path d="m465.758 171.342h-.321c.085-14.783.124-30.045-.06-32.248-.428-5.139-3.533-9.335-7.91-10.69-4.351-1.347-8.964.318-12.335 4.456-3.531 4.332-19.721 33.518-24.599 42.36-1.282 2.323-1.241 5.151.108 7.436s3.805 3.687 6.458 3.687h23.234c-.028 3.751-.057 7.346-.084 10.604-.036 4.142 3.293 7.528 7.435 7.564h.066c4.111 0 7.463-3.315 7.498-7.436.022-2.57.054-6.335.087-10.733h.422c4.142 0 7.5-3.358 7.5-7.5s-3.357-7.5-7.499-7.5zm-15.325 0h-10.584c3.875-6.922 7.642-13.558 10.659-18.756-.008 5.351-.037 11.935-.075 18.756z" fill="#000000" data-original="#000000"></path><path d="m340.613 191.466c-5.823.073-11.987.123-17.232.137 3.37-4.522 7.946-10.795 14.012-19.463 3.973-5.676 6.565-11.049 7.707-15.971.057-.246.102-.494.133-.744l.304-2.381c.041-.315.061-.632.061-.95 0-12.821-10.431-23.252-23.252-23.252-11.086 0-20.681 7.887-22.816 18.753-.798 4.064 1.849 8.007 5.914 8.805 4.065.796 8.007-1.849 8.805-5.914.756-3.85 4.162-6.645 8.097-6.645 4.416 0 8.033 3.486 8.243 7.85l-.181 1.421c-.757 2.973-2.54 6.479-5.303 10.427-9.745 13.923-15.56 21.537-18.683 25.627-3.849 5.039-5.78 7.568-4.511 11.694.75 2.436 2.592 4.303 5.054 5.123 1.008.336 1.917.64 13.863.64 4.712 0 11.143-.047 19.974-.158 4.142-.052 7.457-3.452 7.405-7.594s-3.437-7.479-7.594-7.405z" fill="#000000" data-original="#000000"></path><path d="m383.841 129.617c-11.086 0-20.682 7.887-22.816 18.753-.798 4.065 1.849 8.007 5.914 8.805 4.06.796 8.006-1.849 8.805-5.914.756-3.851 4.162-6.645 8.097-6.645 4.55 0 8.252 3.702 8.252 8.252s-3.702 8.252-8.252 8.252c-4.142 0-7.5 3.358-7.5 7.5s3.358 7.5 7.5 7.5c4.55 0 8.252 3.702 8.252 8.252s-3.702 8.252-8.252 8.252c-4.095 0-7.608-3.049-8.172-7.095-.053-.378-.08-.768-.08-1.157 0-4.142-3.358-7.5-7.5-7.5s-7.5 3.358-7.5 7.5c0 1.083.076 2.172.224 3.234 1.593 11.413 11.493 20.019 23.028 20.019 12.821 0 23.252-10.431 23.252-23.252 0-6.073-2.342-11.606-6.168-15.752 3.826-4.146 6.168-9.68 6.168-15.752 0-12.821-10.431-23.252-23.252-23.252z" fill="#000000" data-original="#000000"></path></g></g></g></svg>